<svg xmlns="http://www.w3.org/2000/svg" version="1.1" id="Lager_1" x="0" y="0" xml:space="preserve" width="308.62" height="72.73"><style type="text/css" id="style2">.st0{fill:#fff}</style><g id="g18" transform="translate(-46.19 -63.62)"><path class="st0" d="M77.43 123.97c-3.79 1.46-12.15.49-12.15.49 14.77-5.83 14.87-11.47 14.87-11.47-3.5 2.24-8.55 0-8.55 0 8.45-3.6 11.37-9.23 11.37-9.23-3.69 1.07-6.61 0-6.61 0 9.23-5.15 11.18-16.91 11.18-16.91s1.94 11.76 11.18 16.91c0 0-2.92 1.07-6.61 0 0 0 2.92 5.64 11.37 9.23 0 0-5.05 2.24-8.55 0 0 0 .1 5.64 14.87 11.47 0 0-8.36.97-12.15-.49 0 0 1.73 4.39 7.75 7.9 3.95 2.3 8.49 3.4 13.06 3.4h10.43L87.54 63.62l-41.35 71.65h10.43c4.57 0 9.11-1.1 13.06-3.4 6.02-3.51 7.75-7.9 7.75-7.9z" id="path4" fill="#fff"/><g id="g16"><path class="st0" d="M179 97.09v5.36c0 14.54-3.54 33.9-22 33.9s-24.45-19.82-24.45-35c0-15.82 5.09-35.72 24.45-35.72 10.45 0 17.27 6.54 20.18 16.27L164.01 87c-.64-3.45-1.73-8.82-6.91-8.82-9.18-.55-10.09 16.36-10.09 22.81 0 7.09.46 22.81 10.45 22.81 6.91 0 8-9.27 8-14h-8.63V97.09z" id="path6" fill="#fff"/><path class="st0" d="M186.19 135.27V66.73h13.63c8.63 0 24.09.91 24.09 19.63 0 7.54-3 14-9.73 17.72l11.91 31.18h-14.27l-11.91-31.63h-.18v31.63h-13.54zm13.54-39.09l2.36.09c6.18 0 8.63-4.18 8.63-9.82 0-4.91-2.36-8.91-9.18-8.54h-1.82v18.27z" id="path8" fill="#fff"/><path class="st0" d="M247.54 66.73v44.36c0 5.18-.64 13 6.73 13 6.63 0 6.63-5 6.73-10.09V66.73h13.54v49.99c0 7.27-.82 19.63-20.36 19.63-12.63 0-20.18-5.91-20.18-18.72v-50.9z" id="path10" fill="#fff"/><path class="st0" d="M283.81 135.27V66.73h13.27c5.27 0 9.82.18 14.18 3.73 4.54 3.64 7 9.73 7 15.45 0 6.09-2.27 10.73-7.36 14.18 5.64 2.73 8.45 10 8.45 15.91 0 13.54-10 19.27-22.36 19.27zm13.55-57.18v16.72c5.09 0 8.09-3.45 8.09-8.63 0-5-2.91-8.36-8.09-8.09zm0 27.27v18.54c5.45.27 8.63-3.73 8.63-9.45 0-5.36-3.27-9.27-8.63-9.09z" id="path12" fill="#fff"/><path class="st0" d="M354.62 66.73v12.73H340.9v14.91h12.09v12.73H340.9v15.45h13.91v12.73h-27.45V66.73z" id="path14" fill="#fff"/></g></g></svg>